<?xml version="1.0" encoding="UTF-8"?>
<svg id="Ebene_1" data-name="Ebene 1" xmlns="http://www.w3.org/2000/svg" viewBox="0 0 533.77 138.31">
  <defs>
    <style>
      .cls-1 {
        fill: #e0b55e;
      }
    </style>
  </defs>
  <path class="cls-1" d="M533.54,86.05c1.71-19.76-6.09-58.65-18.43-73.16-6.36-7.48-18.38-13.16-25.41-12.79h-23.85s-.37.12-.37.12c-7.6,24.97-14.27,50.28-21.76,75.31-1.82,6.09-4.3,14.39-6.32,20.39-4.42,12.76-8.12,18.81-23.15,20.93-11.65,1.64-24.18,1.56-35.98,2.21-109.87,6.1-243.41,13.4-353.33,19.23h505.25l-19.22-23.11c4.56-.83,8.64-1.79,12.17-4.99,5.85-5.31,9.38-16.47,10.39-24.16ZM516.09,60.09h-18v17.64h-16.3v-18h-17.48l.09-16.06h17.4v-17.52h16.3v17.52h18v16.42Z"/>
  <polygon class="cls-1" points="395.72 100.21 406.17 64.38 438.26 64.23 443.84 43.67 411.98 43.67 417.35 22.77 450.18 22.64 456.49 .12 395.07 .12 367.07 103.16 366.24 106.19 393.97 106.19 395.72 100.21"/>
  <polygon class="cls-1" points="337.52 106.19 356.27 106.19 356.79 104.21 362.84 81.38 326.1 81.38 347.75 .12 318.44 .12 289.86 106.19 337.52 106.19"/>
  <path class="cls-1" d="M121.28,115.2l-104.48.25c-3.23,3.69-9.23,10.54-12.29,14.35,36.22-1.86,74.6-4.36,110.82-6.2l5.95-8.39Z"/>
  <path class="cls-1" d="M234.42,41.66c2.46,13.75,17.9,16.36,24.68,26.09,10.86,19.96-27.03,17.42-37.93,12.39-1.28-.49-2.1-1-2.1-1l-3.87,14.3-1.74,6.84c.3.16,66.32,23.51,76.77-25.7,2.8-18.66-11.27-25.23-23.23-34.69-5.16-4.08-5.03-11.96.02-15.78,9.37-6.4,21.89-2.67,31.62,0,1.9-7.2,3.56-13.6,5.43-20.31-6.69-2.7-16.76-3.29-23.79-3.68-25.35-1.63-48.13,15.05-45.86,41.55Z"/>
  <polygon class="cls-1" points="183.55 106.19 240.96 .12 211.77 .12 175.41 74.08 167.62 .12 140.74 .12 151.44 106.19 183.55 106.19"/>
  <path class="cls-1" d="M9.5,101.15c3.67,2.47,8.03,5.04,12.15,5.05h120.79S131.85.11,131.85.11h-47.3c-8.42.35-16.24,4.31-22.63,9.61C44.7,26.84,28.1,44.52,11.69,62.4,5.79,68.42-.37,75.65.02,84.57c.19,6.64,3.97,12.91,9.48,16.58ZM64.83,18.39l48.67-.51-30.29,34.79h-50.96c.54-.76,32.05-33.52,32.58-34.28Z"/>
</svg>